<?xml version="1.0" encoding="UTF-8" standalone="no"?>
<svg
   xmlns:osb="http://www.openswatchbook.org/uri/2009/osb"
   xmlns:dc="http://purl.org/dc/elements/1.1/"
   xmlns:cc="http://creativecommons.org/ns#"
   xmlns:rdf="http://www.w3.org/1999/02/22-rdf-syntax-ns#"
   xmlns:svg="http://www.w3.org/2000/svg"
   xmlns="http://www.w3.org/2000/svg"
   xmlns:sodipodi="http://sodipodi.sourceforge.net/DTD/sodipodi-0.dtd"
   xmlns:inkscape="http://www.inkscape.org/namespaces/inkscape"
   version="1.1"
   id="pieces"
   x="0px"
   y="0px"
   viewBox="0 0 25.3 25.3"
   style="enable-background:new 0 0 25.3 25.3;"
   xml:space="preserve"
   inkscape:version="0.91 r13725"
   sodipodi:docname="icon-researchgate.svg"><metadata
     id="metadata27"><rdf:RDF><cc:Work
         rdf:about=""><dc:format>image/svg+xml</dc:format><dc:type
           rdf:resource="http://purl.org/dc/dcmitype/StillImage" /></cc:Work></rdf:RDF></metadata><defs
     id="defs25"><linearGradient
       id="linearGradient5599"
       osb:paint="solid"><stop
         style="stop-color:#00d3b9;stop-opacity:1;"
         offset="0"
         id="stop5601" /></linearGradient></defs><sodipodi:namedview
     pagecolor="#ffffff"
     bordercolor="#666666"
     borderopacity="1"
     objecttolerance="10"
     gridtolerance="10"
     guidetolerance="10"
     inkscape:pageopacity="0"
     inkscape:pageshadow="2"
     inkscape:window-width="698"
     inkscape:window-height="480"
     id="namedview23"
     showgrid="false"
     inkscape:zoom="9.3280635"
     inkscape:cx="12.65"
     inkscape:cy="12.65"
     inkscape:window-x="521"
     inkscape:window-y="127"
     inkscape:window-maximized="0"
     inkscape:current-layer="g9" /><style
     type="text/css"
     id="style3">
					.st1{fill:#FFFFFF;}
					.st0{stroke:#444; fill: #444; transition: all 150ms ease; }
				</style><g
     id="g5"><g
       id="g7"><g
         id="g9"
         style="fill:#00d3b9;fill-opacity:1"><path
           class="st0"
           d="M12.7,1c6.4,0,11.7,5.2,11.7,11.7s-5.2,11.7-11.7,11.7S1,19.1,1,12.7S6.2,1,12.7,1 M12.7,0"
           id="path11"
           style="fill:#00d3b9;fill-opacity:1;stroke:#00d3b9;stroke-opacity:1" /></g></g><g
       id="g13"><g
         id="g15"><path
           class="st1"
           d="M7.3,10.9c0-1.3,0-1.5-0.6-1.6L6.3,9.3C6.2,9.2,6.2,9,6.3,8.9c0.8-0.1,1.7-0.1,3-0.1c0.8,0,1.6,0.1,2.3,0.4     c0.7,0.3,1.1,1,1.1,1.9c0,1.3-1,2-1.7,2.3c-0.1,0.1,0,0.2,0.1,0.3c1.1,1.8,1.8,2.8,2.7,3.6c0.2,0.2,0.6,0.4,0.9,0.4     c0.1,0,0.1,0.1,0,0.2c-0.1,0-0.3,0.1-0.6,0.1c-1.2,0-1.9-0.3-2.8-1.7c-0.4-0.5-0.9-1.4-1.3-2.1c-0.2-0.3-0.4-0.4-1-0.4     c-0.6,0-0.6,0-0.6,0.3v1.7c0,1.4,0,1.6,0.8,1.7l0.3,0c0.1,0.1,0.1,0.3,0,0.3c-0.6,0-1.1,0-1.6,0c-0.6,0-1.1,0-1.7,0     c-0.1,0-0.1-0.2,0-0.3l0.3,0c0.8-0.1,0.8-0.3,0.8-1.7V10.9z M8.5,12.9c0,0.2,0,0.4,0,0.4c0,0,0.2,0.1,0.9,0.1     c0.5,0,1-0.1,1.4-0.4c0.4-0.3,0.7-0.8,0.7-1.7c0-1.1-0.7-2.1-2.2-2.1c-0.8,0-0.9,0.1-0.9,0.4V12.9z"
           id="path17" /></g><g
         id="g19"><path
           class="st1"
           d="M16.3,9h2v1.2c0,0.6-0.2,1.1-0.6,1.5c-0.4,0.4-0.9,0.6-1.4,0.6c-0.4,0-0.8-0.1-1.1-0.3     c-0.3-0.2-0.5-0.4-0.7-0.7c0-0.1-0.1-0.2-0.1-0.2c0-0.1-0.1-0.2-0.1-0.3c0-0.2-0.1-0.7-0.1-1.3c0-0.7,0-1.1,0.1-1.4     c0-0.2,0.1-0.4,0.2-0.6c0.1-0.3,0.4-0.5,0.7-0.7c0.3-0.2,0.7-0.3,1.1-0.3c0.5,0,1,0.2,1.3,0.5c0.3,0.3,0.6,0.7,0.6,1.2h-0.9     c-0.1-0.2-0.2-0.4-0.4-0.6c-0.2-0.2-0.4-0.2-0.7-0.2c-0.2,0-0.4,0-0.5,0.1c-0.1,0.1-0.3,0.2-0.4,0.3c-0.1,0.1-0.2,0.3-0.2,0.5     c0,0.2-0.1,0.6-0.1,1.2c0,0.6,0,1,0.1,1.2c0,0.2,0.1,0.4,0.2,0.5c0.1,0.1,0.2,0.2,0.4,0.3c0.1,0.1,0.3,0.1,0.5,0.1     c0.3,0,0.6-0.1,0.8-0.4c0.2-0.2,0.3-0.5,0.3-0.9V9.8h-1.1V9z"
           id="path21" /></g></g></g></svg>